<?xml version="1.0" encoding="UTF-8" standalone="no"?>
<svg width="140px" height="33px" viewBox="0 0 140 33" version="1.1" xmlns="http://www.w3.org/2000/svg" xmlns:xlink="http://www.w3.org/1999/xlink">
    <!-- Generator: sketchtool 40 (33762) - http://www.bohemiancoding.com/sketch -->
    <title>085F1538-8C29-4E3E-9346-7FB1210F84AA</title>
    <desc>Created with sketchtool.</desc>
    <defs>
        <linearGradient x1="0%" y1="41.833213%" x2="100%" y2="41.8332121%" id="linearGradient-1">
            <stop stop-color="#1799DD" offset="0%"></stop>
            <stop stop-color="#2FB5EA" offset="100%"></stop>
        </linearGradient>
        <path d="M14.4746603,0 C6.52076282,0 0,6.46039604 0,14.5 C0,22.4678218 6.44910609,29 14.4746603,29 C22.5002145,29 28.9493206,22.539604 28.9493206,14.5 C28.9493206,6.46039604 22.5002145,0 14.4746603,0 L14.4746603,0 L14.4746603,0 Z M21.1524889,23.8316832 L14.6536815,19.0222772 L8.01204318,23.8316832 L10.5115845,16.1509901 L4.01277712,11.4133663 L12.0827247,11.4133663 L14.6536815,3.73267327 L17.0818074,11.3415842 L25.2231704,11.3415842 L18.6529476,16.1509901 L21.1524889,23.8316832 L21.1524889,23.8316832 L21.1524889,23.8316832 Z" id="path-2"></path>
        <filter x="-50%" y="-50%" width="200%" height="200%" filterUnits="objectBoundingBox" id="filter-3">
            <feOffset dx="0" dy="1" in="SourceAlpha" result="shadowOffsetOuter1"></feOffset>
            <feGaussianBlur stdDeviation="1" in="shadowOffsetOuter1" result="shadowBlurOuter1"></feGaussianBlur>
            <feColorMatrix values="0 0 0 0 0.0901960784   0 0 0 0 0.6   0 0 0 0 0.866666667  0 0 0 0.1 0" type="matrix" in="shadowBlurOuter1"></feColorMatrix>
        </filter>
    </defs>
    <g  stroke="none" stroke-width="1" fill="none" fill-rule="evenodd">
        <g  transform="translate(-178.000000, -28.000000)">
            <g id="Header">
                <g id="Menu-Dropdown" transform="translate(180.000000, 24.000000)">
                    <g id="Logo" transform="translate(0.000000, 5.000000)">
                        <g id="mention-logo_logotype_blue">
                            <path d="M35.866089,20.3413185 L37.0137848,20.3413185 C37.3007088,20.3413185 37.4441708,20.2691862 37.4441708,19.6199952 L37.4441708,12.0461 C37.4441708,11.396909 37.3724398,11.2526443 37.0137848,11.2526443 L35.866089,11.2526443 L35.866089,9.23293893 L37.9462877,9.23293893 C39.2374455,9.23293893 40.4568724,9.08867425 41.0307203,8.94440957 L41.0307203,11.5411736 C41.8197612,9.80999759 43.110919,8.8722772 45.1193867,8.8722772 C47.1995854,8.8722772 48.5624742,9.80999759 48.9928602,11.9018353 C49.7101701,9.95426227 51.0730589,8.8722772 53.2967196,8.8722772 C56.1659592,8.8722772 57.600579,10.4591886 57.600579,13.993673 L57.600579,19.6199952 C57.600579,20.2691862 57.744041,20.3413185 58.0309649,20.3413185 L59.1786607,20.3413185 L59.1786607,22.3610239 L52.4359477,22.3610239 L52.4359477,20.3413185 L53.4401816,20.3413185 C53.7271055,20.3413185 53.8705675,20.2691862 53.8705675,19.6199952 L53.8705675,14.21007 C53.8705675,12.1903647 53.2249886,11.3247766 51.7186378,11.3247766 C50.068825,11.3247766 49.2080531,12.6231586 49.2080531,15.1477904 L49.2080531,19.6921275 C49.2080531,20.3413185 49.3515151,20.4134508 49.6384391,20.4134508 L50.7861349,20.4134508 L50.7861349,22.3610239 L44.1151529,22.3610239 L44.1151529,20.3413185 L45.3345797,20.3413185 C45.6215036,20.3413185 45.7649656,20.2691862 45.7649656,19.6199952 L45.7649656,13.9215407 C45.7649656,12.1182323 45.0476557,11.2526443 43.6130359,11.2526443 C41.9632232,11.2526443 41.1024513,12.5510263 41.1024513,15.075658 L41.1024513,19.6199952 C41.1024513,20.2691862 41.2459132,20.3413185 41.5328372,20.3413185 L42.6088021,20.3413185 L42.6088021,22.3610239 L35.866089,22.3610239 L35.866089,20.3413185 L35.866089,20.3413185 Z M63.6977131,16.231176 C63.7694441,18.6836754 64.9888709,20.3427192 67.4277246,20.3427192 C69.2927305,20.3427192 70.3686954,19.4049988 70.9425429,17.8180874 L72.9510109,18.7558078 C72.233701,20.8476455 70.4404262,22.5066892 67.0690696,22.5066892 C62.3348243,22.5066892 59.8959706,19.6213958 59.8959706,15.581985 C59.8959706,11.4704419 62.6934792,8.65728084 66.7104147,8.65728084 C70.870812,8.65728084 73.1662035,11.2540449 73.1662035,15.581985 L73.1662035,16.231176 L63.6977131,16.231176 L63.6977131,16.231176 L63.6977131,16.231176 Z M63.6977131,14.3557353 L69.5796546,14.3557353 C69.5079231,11.6868389 68.7188823,10.6769862 66.7821457,10.6769862 C64.91714,10.6769862 63.8411751,11.7589713 63.6977131,14.3557353 L63.6977131,14.3557353 Z M79.3350686,11.6133059 C80.1958409,9.80999759 81.7021916,8.94440957 83.7823905,8.94440957 C86.5798986,8.94440957 88.0145184,10.5313209 88.0145184,13.8494083 L88.0145184,19.6921275 C88.0145184,20.3413185 88.1579808,20.4134508 88.4449049,20.4134508 L89.5926006,20.4134508 L89.5926006,22.3610239 L82.8498873,22.3610239 L82.8498873,20.3413185 L83.9258522,20.3413185 C84.2127763,20.3413185 84.356238,20.2691862 84.356238,19.6199952 L84.356238,13.8494083 C84.356238,12.0461 83.7106596,11.2526443 82.2043082,11.2526443 C80.4110335,11.2526443 79.3350686,12.6231586 79.3350686,15.5805844 L79.3350686,19.6921275 C79.3350686,20.3413185 79.478531,20.4134508 79.7654551,20.4134508 L80.8414199,20.4134508 L80.8414199,22.3610239 L74.0987066,22.3610239 L74.0987066,20.3413185 L75.2464024,20.3413185 C75.5333265,20.3413185 75.6767882,20.2691862 75.6767882,19.6199952 L75.6767882,12.0461 C75.6767882,11.396909 75.5333265,11.2526443 75.2464024,11.2526443 L74.0987066,11.2526443 L74.0987066,9.23293893 L76.1789055,9.23293893 C77.4700629,9.23293893 78.6894902,9.08867425 79.2633377,8.94440957 L79.3350686,11.6133059 L79.3350686,11.6133059 Z M91.7445303,18.6007575 L91.7445303,11.2432594 L89.9512556,11.2432594 L89.9512556,9.43995098 L90.9554896,9.36781868 C91.8879921,9.223554 92.4618403,8.86289233 92.5335711,7.85303962 L92.8204952,5.47267257 L95.3310799,5.47267257 L95.3310799,9.223554 L97.9133955,9.223554 L97.9133955,11.2432594 L95.2593484,11.2432594 L95.2593484,18.6007575 C95.2593484,20.0434043 95.7614657,20.5483306 96.9091614,20.5483306 C97.4830096,20.5483306 97.8416646,20.404066 98.128588,20.3319336 L98.128588,22.351639 C97.6264714,22.4959037 96.6939682,22.7123007 95.7614657,22.7123007 C92.8922261,22.7123007 91.7445303,21.5581833 91.7445303,18.6007575 L91.7445303,18.6007575 Z M99.0610912,20.3413185 L100.280518,20.3413185 C100.567442,20.3413185 100.710904,20.1970538 100.710904,19.6199952 L100.710904,12.3346293 C100.710904,11.4690413 100.567442,11.2526443 100.137056,11.2526443 L99.0610912,11.2526443 L99.0610912,9.23293893 L101.213021,9.23293893 C102.504178,9.23293893 103.723606,9.08867425 104.369185,8.94440957 L104.369185,19.6199952 C104.369185,20.1970538 104.512646,20.3413185 104.79957,20.3413185 L105.947266,20.3413185 L105.947266,22.3610239 L99.0610912,22.3610239 L99.0610912,20.3413185 L99.0610912,20.3413185 Z M100.280518,5.77058682 C100.280518,4.54433712 101.14129,3.53448442 102.504178,3.53448442 C103.795336,3.53448442 104.72784,4.54433712 104.72784,5.77058682 C104.72784,6.99683654 103.795336,8.00668918 102.504178,8.00668918 C101.14129,8.00668918 100.280518,6.99683654 100.280518,5.77058682 L100.280518,5.77058682 Z M106.9515,15.7969814 C106.9515,11.6854383 109.749008,8.8722772 113.981137,8.8722772 C118.069803,8.8722772 120.867312,11.6854383 120.867312,15.7969814 C120.867312,19.9085245 118.069803,22.7216856 113.909406,22.7216856 C109.677277,22.7216856 106.9515,19.9806569 106.9515,15.7969814 L106.9515,15.7969814 Z M117.209032,16.0133784 L117.209032,15.6527168 C117.209032,12.478894 116.133067,11.0362473 113.909406,11.0362473 C111.614015,11.0362473 110.609781,12.478894 110.609781,15.6527168 L110.609781,16.0133784 C110.609781,19.1872011 111.614015,20.6298479 113.909406,20.6298479 C116.204798,20.5577155 117.209032,19.1150688 117.209032,16.0133784 L117.209032,16.0133784 Z M127.036177,11.6133059 C127.896949,9.80999759 129.4033,8.94440957 131.483498,8.94440957 C134.281007,8.94440957 135.715627,10.5313209 135.715627,13.8494083 L135.715627,19.6921275 C135.715627,20.3413185 135.859089,20.4134508 136.146013,20.4134508 L137.293708,20.4134508 L137.293708,22.3610239 L130.550996,22.3610239 L130.550996,20.3413185 L131.626961,20.3413185 C131.913885,20.3413185 132.057346,20.2691862 132.057346,19.6199952 L132.057346,13.8494083 C132.057346,12.0461 131.411767,11.2526443 129.905417,11.2526443 C128.112142,11.2526443 127.036177,12.6231586 127.036177,15.5805844 L127.036177,19.6921275 C127.036177,20.3413185 127.179639,20.4134508 127.466563,20.4134508 L128.542528,20.4134508 L128.542528,22.3610239 L121.799815,22.3610239 L121.799815,20.3413185 L122.947511,20.3413185 C123.234435,20.3413185 123.377897,20.2691862 123.377897,19.6199952 L123.377897,12.0461 C123.377897,11.396909 123.306166,11.2526443 122.947511,11.2526443 L121.799815,11.2526443 L121.799815,9.23293893 L123.880013,9.23293893 C125.171171,9.23293893 126.390598,9.08867425 126.964446,8.94440957 L127.036177,11.6133059 L127.036177,11.6133059 Z" id="Mention" fill="#FFFFFF"></path>
                            <g id="Stars">
                                <use fill="black" fill-opacity="1" filter="url(#filter-3)" xlink:href="#path-2"></use>
                                <use fill="url(#linearGradient-1)" fill-rule="evenodd" xlink:href="#path-2"></use>
                            </g>
                        </g>
                    </g>
                </g>
            </g>
        </g>
    </g>
</svg>